<mxfile host="app.diagrams.net" agent="Mozilla/5.0 (Windows NT 10.0; Win64; x64) AppleWebKit/537.36 (KHTML, like Gecko) Chrome/131.0.0.0 Safari/537.36" version="24.8.9">
  <diagram name="第 1 页" id="T2eCjdp5zx5nGgz7mEfB">
    <mxGraphModel dx="2390" dy="930" grid="0" gridSize="10" guides="1" tooltips="1" connect="1" arrows="1" fold="1" page="0" pageScale="1" pageWidth="827" pageHeight="1169" math="0" shadow="0">
      <root>
        <mxCell id="0" />
        <mxCell id="1" parent="0" />
        <mxCell id="gOEhwQp6ffqD-67sXhbN-23" value="" style="rounded=1;whiteSpace=wrap;html=1;" parent="1" vertex="1">
          <mxGeometry x="128" y="123" width="495" height="247" as="geometry" />
        </mxCell>
        <mxCell id="gOEhwQp6ffqD-67sXhbN-1" value="" style="rounded=1;whiteSpace=wrap;html=1;fillColor=#f5f5f5;fontColor=#333333;strokeColor=#666666;" parent="1" vertex="1">
          <mxGeometry x="142" y="217" width="175" height="88" as="geometry" />
        </mxCell>
        <mxCell id="gOEhwQp6ffqD-67sXhbN-2" value="Frontend&amp;nbsp;&lt;div&gt;(User Interface)&lt;/div&gt;" style="text;html=1;align=center;verticalAlign=middle;whiteSpace=wrap;rounded=0;" parent="1" vertex="1">
          <mxGeometry x="149" y="219" width="86" height="34" as="geometry" />
        </mxCell>
        <mxCell id="gOEhwQp6ffqD-67sXhbN-3" value="Gradio Framework" style="rounded=1;whiteSpace=wrap;html=1;" parent="1" vertex="1">
          <mxGeometry x="153" y="261" width="152" height="34" as="geometry" />
        </mxCell>
        <mxCell id="gOEhwQp6ffqD-67sXhbN-4" value="" style="rounded=1;whiteSpace=wrap;html=1;fillColor=#f5f5f5;fontColor=#333333;strokeColor=#666666;" parent="1" vertex="1">
          <mxGeometry x="429" y="180.5" width="184" height="161" as="geometry" />
        </mxCell>
        <mxCell id="gOEhwQp6ffqD-67sXhbN-5" value="Backend&lt;div&gt;(Functionality)&lt;/div&gt;" style="text;html=1;align=center;verticalAlign=middle;whiteSpace=wrap;rounded=0;" parent="1" vertex="1">
          <mxGeometry x="436" y="182.5" width="86" height="34" as="geometry" />
        </mxCell>
        <mxCell id="gOEhwQp6ffqD-67sXhbN-6" value="Pytorch" style="rounded=1;whiteSpace=wrap;html=1;" parent="1" vertex="1">
          <mxGeometry x="440" y="224.5" width="159" height="46" as="geometry" />
        </mxCell>
        <mxCell id="gOEhwQp6ffqD-67sXhbN-7" value="Langchain" style="rounded=1;whiteSpace=wrap;html=1;" parent="1" vertex="1">
          <mxGeometry x="440" y="281.5" width="159" height="46" as="geometry" />
        </mxCell>
        <mxCell id="gOEhwQp6ffqD-67sXhbN-10" value="Actor" style="shape=umlActor;verticalLabelPosition=bottom;verticalAlign=top;html=1;outlineConnect=0;" parent="1" vertex="1">
          <mxGeometry x="-52" y="224.5" width="30" height="60" as="geometry" />
        </mxCell>
        <mxCell id="gOEhwQp6ffqD-67sXhbN-11" value="" style="endArrow=classic;html=1;rounded=0;" parent="1" edge="1">
          <mxGeometry width="50" height="50" relative="1" as="geometry">
            <mxPoint x="5" y="261" as="sourcePoint" />
            <mxPoint x="123" y="261" as="targetPoint" />
          </mxGeometry>
        </mxCell>
        <mxCell id="gOEhwQp6ffqD-67sXhbN-14" value="today&#39;s schedule?" style="text;html=1;align=center;verticalAlign=middle;whiteSpace=wrap;rounded=0;" parent="1" vertex="1">
          <mxGeometry x="11" y="229" width="99" height="30" as="geometry" />
        </mxCell>
        <mxCell id="gOEhwQp6ffqD-67sXhbN-16" value="" style="endArrow=classic;html=1;rounded=0;" parent="1" edge="1">
          <mxGeometry width="50" height="50" relative="1" as="geometry">
            <mxPoint x="329" y="235.5" as="sourcePoint" />
            <mxPoint x="421" y="236" as="targetPoint" />
          </mxGeometry>
        </mxCell>
        <mxCell id="gOEhwQp6ffqD-67sXhbN-17" value="Input Preprocess" style="text;html=1;align=center;verticalAlign=middle;whiteSpace=wrap;rounded=0;" parent="1" vertex="1">
          <mxGeometry x="323" y="199" width="99" height="30" as="geometry" />
        </mxCell>
        <mxCell id="gOEhwQp6ffqD-67sXhbN-18" value="Output Postprocess" style="text;html=1;align=center;verticalAlign=middle;whiteSpace=wrap;rounded=0;" parent="1" vertex="1">
          <mxGeometry x="315.5" y="281.5" width="114" height="30" as="geometry" />
        </mxCell>
        <mxCell id="gOEhwQp6ffqD-67sXhbN-22" value="" style="endArrow=classic;html=1;rounded=0;" parent="1" edge="1">
          <mxGeometry width="50" height="50" relative="1" as="geometry">
            <mxPoint x="417.5" y="280.5" as="sourcePoint" />
            <mxPoint x="327.5" y="280.5" as="targetPoint" />
          </mxGeometry>
        </mxCell>
        <mxCell id="gOEhwQp6ffqD-67sXhbN-25" value="Process Runnable" style="text;html=1;align=center;verticalAlign=middle;whiteSpace=wrap;rounded=0;" parent="1" vertex="1">
          <mxGeometry x="313.75" y="82" width="117.5" height="30" as="geometry" />
        </mxCell>
        <mxCell id="gOEhwQp6ffqD-67sXhbN-26" value="Integrated front/backend&lt;div&gt;&lt;br&gt;&lt;/div&gt;&lt;div&gt;(Host on cloud as a whole)&lt;/div&gt;" style="text;html=1;align=center;verticalAlign=middle;whiteSpace=wrap;rounded=0;" parent="1" vertex="1">
          <mxGeometry x="144" y="130" width="152" height="55" as="geometry" />
        </mxCell>
        <mxCell id="gOEhwQp6ffqD-67sXhbN-27" value="" style="rounded=1;whiteSpace=wrap;html=1;fillColor=#f5f5f5;fontColor=#333333;strokeColor=#666666;" parent="1" vertex="1">
          <mxGeometry x="757" y="110.25" width="220" height="251.5" as="geometry" />
        </mxCell>
        <mxCell id="gOEhwQp6ffqD-67sXhbN-28" value="Storage" style="text;html=1;align=center;verticalAlign=middle;whiteSpace=wrap;rounded=0;" parent="1" vertex="1">
          <mxGeometry x="757" y="112.25" width="86" height="34" as="geometry" />
        </mxCell>
        <mxCell id="gOEhwQp6ffqD-67sXhbN-29" value="Structured Database (MySQL)" style="rounded=1;whiteSpace=wrap;html=1;" parent="1" vertex="1">
          <mxGeometry x="767" y="146.25" width="199" height="47.5" as="geometry" />
        </mxCell>
        <mxCell id="gOEhwQp6ffqD-67sXhbN-30" value="Unstructured Database (Redis, ES)" style="rounded=1;whiteSpace=wrap;html=1;" parent="1" vertex="1">
          <mxGeometry x="766.25" y="214.25" width="201.5" height="47.5" as="geometry" />
        </mxCell>
        <mxCell id="gOEhwQp6ffqD-67sXhbN-31" value="Vector Database" style="rounded=1;whiteSpace=wrap;html=1;" parent="1" vertex="1">
          <mxGeometry x="768" y="282.75" width="201.5" height="47.5" as="geometry" />
        </mxCell>
        <mxCell id="gOEhwQp6ffqD-67sXhbN-32" value="" style="endArrow=classic;html=1;rounded=0;" parent="1" edge="1">
          <mxGeometry width="50" height="50" relative="1" as="geometry">
            <mxPoint x="636" y="186.25" as="sourcePoint" />
            <mxPoint x="746" y="186.25" as="targetPoint" />
          </mxGeometry>
        </mxCell>
        <mxCell id="gOEhwQp6ffqD-67sXhbN-33" value="Retrieval" style="text;html=1;align=center;verticalAlign=middle;whiteSpace=wrap;rounded=0;" parent="1" vertex="1">
          <mxGeometry x="638" y="151.75" width="99" height="30" as="geometry" />
        </mxCell>
        <mxCell id="gOEhwQp6ffqD-67sXhbN-34" value="" style="endArrow=classic;html=1;rounded=0;" parent="1" edge="1">
          <mxGeometry width="50" height="50" relative="1" as="geometry">
            <mxPoint x="745.5" y="297.08000000000004" as="sourcePoint" />
            <mxPoint x="637" y="297.25" as="targetPoint" />
          </mxGeometry>
        </mxCell>
        <mxCell id="gOEhwQp6ffqD-67sXhbN-35" value="Augment" style="text;html=1;align=center;verticalAlign=middle;whiteSpace=wrap;rounded=0;" parent="1" vertex="1">
          <mxGeometry x="644" y="306.25" width="99" height="30" as="geometry" />
        </mxCell>
        <mxCell id="n_opsaUW1rDAgpYiKHQc-1" value="Actor" style="shape=umlActor;verticalLabelPosition=bottom;verticalAlign=top;html=1;outlineConnect=0;" parent="1" vertex="1">
          <mxGeometry x="-181" y="931" width="56" height="112" as="geometry" />
        </mxCell>
        <mxCell id="n_opsaUW1rDAgpYiKHQc-3" value="" style="endArrow=classic;html=1;rounded=0;" parent="1" edge="1">
          <mxGeometry width="50" height="50" relative="1" as="geometry">
            <mxPoint x="-95" y="986.23" as="sourcePoint" />
            <mxPoint x="70" y="986" as="targetPoint" />
          </mxGeometry>
        </mxCell>
        <mxCell id="n_opsaUW1rDAgpYiKHQc-4" value="User Input" style="text;html=1;align=center;verticalAlign=middle;whiteSpace=wrap;rounded=0;" parent="1" vertex="1">
          <mxGeometry x="-70.5" y="935" width="99" height="30" as="geometry" />
        </mxCell>
        <mxCell id="n_opsaUW1rDAgpYiKHQc-5" value="" style="rounded=1;whiteSpace=wrap;html=1;movable=1;resizable=1;rotatable=1;deletable=1;editable=1;locked=0;connectable=1;" parent="1" vertex="1">
          <mxGeometry x="92" y="747" width="1404" height="468" as="geometry" />
        </mxCell>
        <mxCell id="n_opsaUW1rDAgpYiKHQc-6" value="" style="rounded=1;whiteSpace=wrap;html=1;fillColor=#f5f5f5;fontColor=#333333;strokeColor=#666666;" parent="1" vertex="1">
          <mxGeometry x="125" y="938.25" width="175" height="88" as="geometry" />
        </mxCell>
        <mxCell id="n_opsaUW1rDAgpYiKHQc-7" value="&lt;b&gt;Frontend&amp;nbsp;&lt;/b&gt;&lt;div&gt;&lt;b&gt;(User Interface)&lt;/b&gt;&lt;/div&gt;" style="text;html=1;align=center;verticalAlign=middle;whiteSpace=wrap;rounded=0;" parent="1" vertex="1">
          <mxGeometry x="132" y="940.25" width="101" height="34" as="geometry" />
        </mxCell>
        <mxCell id="n_opsaUW1rDAgpYiKHQc-8" value="&lt;b&gt;Gradio&lt;/b&gt;" style="rounded=1;whiteSpace=wrap;html=1;" parent="1" vertex="1">
          <mxGeometry x="136" y="982.25" width="152" height="34" as="geometry" />
        </mxCell>
        <mxCell id="n_opsaUW1rDAgpYiKHQc-13" value="" style="endArrow=classic;html=1;rounded=0;" parent="1" edge="1">
          <mxGeometry width="50" height="50" relative="1" as="geometry">
            <mxPoint x="312" y="956.75" as="sourcePoint" />
            <mxPoint x="404" y="957.25" as="targetPoint" />
          </mxGeometry>
        </mxCell>
        <mxCell id="n_opsaUW1rDAgpYiKHQc-14" value="Frontend Input" style="text;html=1;align=center;verticalAlign=middle;whiteSpace=wrap;rounded=0;" parent="1" vertex="1">
          <mxGeometry x="306" y="920.25" width="99" height="30" as="geometry" />
        </mxCell>
        <mxCell id="n_opsaUW1rDAgpYiKHQc-15" value="Backend Output" style="text;html=1;align=center;verticalAlign=middle;whiteSpace=wrap;rounded=0;" parent="1" vertex="1">
          <mxGeometry x="298.5" y="1002.75" width="114" height="30" as="geometry" />
        </mxCell>
        <mxCell id="n_opsaUW1rDAgpYiKHQc-16" value="" style="endArrow=classic;html=1;rounded=0;" parent="1" edge="1">
          <mxGeometry width="50" height="50" relative="1" as="geometry">
            <mxPoint x="400.5" y="1001.75" as="sourcePoint" />
            <mxPoint x="310.5" y="1001.75" as="targetPoint" />
          </mxGeometry>
        </mxCell>
        <mxCell id="n_opsaUW1rDAgpYiKHQc-20" value="" style="rounded=1;whiteSpace=wrap;html=1;fillColor=#f5f5f5;fontColor=#333333;strokeColor=#666666;movable=1;resizable=1;rotatable=1;deletable=1;editable=1;locked=0;connectable=1;arcSize=10;" parent="1" vertex="1">
          <mxGeometry x="427" y="791" width="1034" height="384" as="geometry" />
        </mxCell>
        <mxCell id="n_opsaUW1rDAgpYiKHQc-22" value="&lt;b&gt;Backend&lt;/b&gt;&lt;div&gt;&lt;b&gt;(Langchain Chain)&lt;/b&gt;&lt;/div&gt;" style="text;html=1;align=center;verticalAlign=middle;whiteSpace=wrap;rounded=0;" parent="1" vertex="1">
          <mxGeometry x="436" y="800" width="121" height="34" as="geometry" />
        </mxCell>
        <mxCell id="n_opsaUW1rDAgpYiKHQc-27" style="edgeStyle=orthogonalEdgeStyle;rounded=0;orthogonalLoop=1;jettySize=auto;html=1;exitX=1;exitY=0.5;exitDx=0;exitDy=0;entryX=0;entryY=0.5;entryDx=0;entryDy=0;fillColor=#f8cecc;strokeColor=#b85450;" parent="1" source="n_opsaUW1rDAgpYiKHQc-24" target="n_opsaUW1rDAgpYiKHQc-26" edge="1">
          <mxGeometry relative="1" as="geometry" />
        </mxCell>
        <mxCell id="n_opsaUW1rDAgpYiKHQc-30" style="edgeStyle=orthogonalEdgeStyle;rounded=0;orthogonalLoop=1;jettySize=auto;html=1;exitX=1;exitY=0.5;exitDx=0;exitDy=0;entryX=0;entryY=0.5;entryDx=0;entryDy=0;fillColor=#f8cecc;strokeColor=#b85450;" parent="1" source="n_opsaUW1rDAgpYiKHQc-24" target="n_opsaUW1rDAgpYiKHQc-29" edge="1">
          <mxGeometry relative="1" as="geometry" />
        </mxCell>
        <mxCell id="n_opsaUW1rDAgpYiKHQc-24" value="&lt;b&gt;1st Logic Routing&lt;/b&gt;&lt;div&gt;&lt;br&gt;&lt;/div&gt;&lt;div&gt;What is user input about?&lt;/div&gt;" style="rounded=1;whiteSpace=wrap;html=1;" parent="1" vertex="1">
          <mxGeometry x="432" y="946.5" width="164" height="60" as="geometry" />
        </mxCell>
        <mxCell id="n_opsaUW1rDAgpYiKHQc-35" style="edgeStyle=orthogonalEdgeStyle;rounded=0;orthogonalLoop=1;jettySize=auto;html=1;exitX=1;exitY=0.5;exitDx=0;exitDy=0;entryX=0;entryY=0.5;entryDx=0;entryDy=0;fillColor=#dae8fc;strokeColor=#6c8ebf;" parent="1" source="n_opsaUW1rDAgpYiKHQc-26" target="n_opsaUW1rDAgpYiKHQc-32" edge="1">
          <mxGeometry relative="1" as="geometry" />
        </mxCell>
        <mxCell id="n_opsaUW1rDAgpYiKHQc-36" style="edgeStyle=orthogonalEdgeStyle;rounded=0;orthogonalLoop=1;jettySize=auto;html=1;exitX=1;exitY=0.5;exitDx=0;exitDy=0;entryX=0;entryY=0.5;entryDx=0;entryDy=0;fillColor=#dae8fc;strokeColor=#6c8ebf;" parent="1" source="n_opsaUW1rDAgpYiKHQc-26" target="n_opsaUW1rDAgpYiKHQc-33" edge="1">
          <mxGeometry relative="1" as="geometry" />
        </mxCell>
        <mxCell id="n_opsaUW1rDAgpYiKHQc-26" value="&lt;div&gt;&lt;b&gt;2nd Logic Routing&lt;/b&gt;&lt;/div&gt;&lt;div&gt;&lt;b&gt;&lt;br&gt;&lt;/b&gt;&lt;/div&gt;&lt;div&gt;Is user expecting &lt;b&gt;SELECT &lt;/b&gt;or&amp;nbsp;&lt;b&gt;&lt;span style=&quot;background-color: initial;&quot;&gt;INSERT&lt;/span&gt;&lt;span style=&quot;background-color: initial;&quot;&gt;/&lt;/span&gt;&lt;/b&gt;&lt;span style=&quot;background-color: initial;&quot;&gt;&lt;b&gt;DELETE/UPDATE&lt;/b&gt; operation?&lt;/span&gt;&lt;/div&gt;" style="rounded=1;whiteSpace=wrap;html=1;" parent="1" vertex="1">
          <mxGeometry x="733.26" y="848" width="229" height="95" as="geometry" />
        </mxCell>
        <mxCell id="n_opsaUW1rDAgpYiKHQc-28" value="About &lt;b&gt;schedule&lt;/b&gt;" style="text;html=1;align=center;verticalAlign=middle;whiteSpace=wrap;rounded=0;" parent="1" vertex="1">
          <mxGeometry x="609" y="818" width="154" height="30" as="geometry" />
        </mxCell>
        <mxCell id="n_opsaUW1rDAgpYiKHQc-39" style="edgeStyle=orthogonalEdgeStyle;rounded=0;orthogonalLoop=1;jettySize=auto;html=1;exitX=1;exitY=0.5;exitDx=0;exitDy=0;entryX=0;entryY=0.5;entryDx=0;entryDy=0;fillColor=#dae8fc;strokeColor=#6c8ebf;" parent="1" source="n_opsaUW1rDAgpYiKHQc-29" target="n_opsaUW1rDAgpYiKHQc-37" edge="1">
          <mxGeometry relative="1" as="geometry" />
        </mxCell>
        <mxCell id="n_opsaUW1rDAgpYiKHQc-40" style="edgeStyle=orthogonalEdgeStyle;rounded=0;orthogonalLoop=1;jettySize=auto;html=1;exitX=1;exitY=0.5;exitDx=0;exitDy=0;fillColor=#dae8fc;strokeColor=#6c8ebf;" parent="1" source="n_opsaUW1rDAgpYiKHQc-29" target="n_opsaUW1rDAgpYiKHQc-38" edge="1">
          <mxGeometry relative="1" as="geometry" />
        </mxCell>
        <mxCell id="n_opsaUW1rDAgpYiKHQc-29" value="&lt;div&gt;&lt;b&gt;2nd Logic Routing&lt;/b&gt;&lt;/div&gt;&lt;div&gt;&lt;b&gt;&lt;br&gt;&lt;/b&gt;&lt;/div&gt;&lt;div&gt;Is user expecting &lt;b&gt;Retrieval &lt;/b&gt;or &lt;b&gt;Add/Delete/Update&lt;/b&gt; operation?&lt;/div&gt;" style="rounded=1;whiteSpace=wrap;html=1;" parent="1" vertex="1">
          <mxGeometry x="733.88" y="1028" width="227.75" height="95" as="geometry" />
        </mxCell>
        <mxCell id="n_opsaUW1rDAgpYiKHQc-31" value="About &lt;b&gt;memo&lt;/b&gt;" style="text;html=1;align=center;verticalAlign=middle;whiteSpace=wrap;rounded=0;" parent="1" vertex="1">
          <mxGeometry x="606" y="1114" width="154" height="30" as="geometry" />
        </mxCell>
        <mxCell id="n_opsaUW1rDAgpYiKHQc-43" style="edgeStyle=orthogonalEdgeStyle;rounded=0;orthogonalLoop=1;jettySize=auto;html=1;exitX=1;exitY=0.5;exitDx=0;exitDy=0;entryX=0;entryY=0.5;entryDx=0;entryDy=0;" parent="1" source="n_opsaUW1rDAgpYiKHQc-32" target="n_opsaUW1rDAgpYiKHQc-42" edge="1">
          <mxGeometry relative="1" as="geometry" />
        </mxCell>
        <mxCell id="n_opsaUW1rDAgpYiKHQc-32" value="&lt;div&gt;&lt;b&gt;ReAct Agent&lt;/b&gt;&lt;/div&gt;&lt;div&gt;&lt;b&gt;&lt;br&gt;&lt;/b&gt;&lt;/div&gt;&lt;div&gt;SELECT&lt;/div&gt;" style="rounded=1;whiteSpace=wrap;html=1;" parent="1" vertex="1">
          <mxGeometry x="1053" y="805" width="161" height="75" as="geometry" />
        </mxCell>
        <mxCell id="n_opsaUW1rDAgpYiKHQc-45" style="edgeStyle=orthogonalEdgeStyle;rounded=0;orthogonalLoop=1;jettySize=auto;html=1;exitX=1;exitY=0.5;exitDx=0;exitDy=0;" parent="1" source="n_opsaUW1rDAgpYiKHQc-33" target="n_opsaUW1rDAgpYiKHQc-44" edge="1">
          <mxGeometry relative="1" as="geometry" />
        </mxCell>
        <mxCell id="n_opsaUW1rDAgpYiKHQc-33" value="&lt;div&gt;&lt;b&gt;ToolCalling Agent&lt;/b&gt;&lt;/div&gt;&lt;div&gt;&lt;b&gt;&lt;br&gt;&lt;/b&gt;&lt;/div&gt;&lt;div&gt;INSERT/DELETE/UPDATE&lt;/div&gt;" style="rounded=1;whiteSpace=wrap;html=1;" parent="1" vertex="1">
          <mxGeometry x="1053" y="900" width="161" height="75" as="geometry" />
        </mxCell>
        <mxCell id="n_opsaUW1rDAgpYiKHQc-47" style="edgeStyle=orthogonalEdgeStyle;rounded=0;orthogonalLoop=1;jettySize=auto;html=1;exitX=1;exitY=0.5;exitDx=0;exitDy=0;entryX=0;entryY=0.5;entryDx=0;entryDy=0;" parent="1" source="n_opsaUW1rDAgpYiKHQc-37" target="n_opsaUW1rDAgpYiKHQc-46" edge="1">
          <mxGeometry relative="1" as="geometry" />
        </mxCell>
        <mxCell id="n_opsaUW1rDAgpYiKHQc-37" value="&lt;div&gt;&lt;b&gt;ReAct Agent&lt;/b&gt;&lt;/div&gt;&lt;div&gt;&lt;b&gt;&lt;br&gt;&lt;/b&gt;&lt;/div&gt;&lt;div&gt;Retrieval&lt;/div&gt;" style="rounded=1;whiteSpace=wrap;html=1;" parent="1" vertex="1">
          <mxGeometry x="1053" y="992" width="161" height="75" as="geometry" />
        </mxCell>
        <mxCell id="n_opsaUW1rDAgpYiKHQc-49" style="edgeStyle=orthogonalEdgeStyle;rounded=0;orthogonalLoop=1;jettySize=auto;html=1;exitX=1;exitY=0.5;exitDx=0;exitDy=0;entryX=0;entryY=0.5;entryDx=0;entryDy=0;" parent="1" source="n_opsaUW1rDAgpYiKHQc-38" target="n_opsaUW1rDAgpYiKHQc-48" edge="1">
          <mxGeometry relative="1" as="geometry" />
        </mxCell>
        <mxCell id="n_opsaUW1rDAgpYiKHQc-38" value="&lt;div&gt;&lt;b&gt;ToolCalling Agent&lt;/b&gt;&lt;/div&gt;&lt;div&gt;&lt;b&gt;&lt;br&gt;&lt;/b&gt;&lt;/div&gt;&lt;div&gt;Add/Delete/Update&lt;/div&gt;" style="rounded=1;whiteSpace=wrap;html=1;" parent="1" vertex="1">
          <mxGeometry x="1053" y="1084" width="161" height="75" as="geometry" />
        </mxCell>
        <mxCell id="n_opsaUW1rDAgpYiKHQc-42" value="&lt;div&gt;&lt;b&gt;Builtin SQL Toolkit&lt;/b&gt;&lt;/div&gt;" style="rounded=1;whiteSpace=wrap;html=1;" parent="1" vertex="1">
          <mxGeometry x="1278" y="805" width="161" height="75" as="geometry" />
        </mxCell>
        <mxCell id="n_opsaUW1rDAgpYiKHQc-44" value="&lt;div&gt;&lt;b&gt;Customized SQL Toolkit&lt;/b&gt;&lt;/div&gt;" style="rounded=1;whiteSpace=wrap;html=1;" parent="1" vertex="1">
          <mxGeometry x="1278" y="900" width="161" height="75" as="geometry" />
        </mxCell>
        <mxCell id="n_opsaUW1rDAgpYiKHQc-46" value="&lt;div&gt;&lt;b&gt;Builtin Vector DB Toolkit&lt;/b&gt;&lt;/div&gt;" style="rounded=1;whiteSpace=wrap;html=1;" parent="1" vertex="1">
          <mxGeometry x="1278" y="992" width="161" height="75" as="geometry" />
        </mxCell>
        <mxCell id="n_opsaUW1rDAgpYiKHQc-48" value="&lt;div&gt;&lt;b&gt;Customized Vector DB Toolkit&lt;/b&gt;&lt;/div&gt;" style="rounded=1;whiteSpace=wrap;html=1;" parent="1" vertex="1">
          <mxGeometry x="1278" y="1084" width="161" height="75" as="geometry" />
        </mxCell>
        <mxCell id="n_opsaUW1rDAgpYiKHQc-53" value="&lt;b&gt;Python Process&lt;/b&gt;" style="text;html=1;align=center;verticalAlign=middle;whiteSpace=wrap;rounded=0;" parent="1" vertex="1">
          <mxGeometry x="122" y="762" width="121" height="34" as="geometry" />
        </mxCell>
        <mxCell id="h7r6Ckqdof8iL1ljjbwg-38" value="Actor" style="shape=umlActor;verticalLabelPosition=bottom;verticalAlign=top;html=1;outlineConnect=0;" parent="1" vertex="1">
          <mxGeometry x="-421" y="1744.12" width="56" height="112" as="geometry" />
        </mxCell>
        <mxCell id="h7r6Ckqdof8iL1ljjbwg-41" value="" style="rounded=1;whiteSpace=wrap;html=1;movable=0;resizable=0;rotatable=0;deletable=0;editable=0;locked=1;connectable=0;" parent="1" vertex="1">
          <mxGeometry x="-212" y="1573" width="1689" height="468" as="geometry" />
        </mxCell>
        <mxCell id="h7r6Ckqdof8iL1ljjbwg-42" value="" style="rounded=1;whiteSpace=wrap;html=1;fillColor=#f5f5f5;fontColor=#333333;strokeColor=#666666;" parent="1" vertex="1">
          <mxGeometry x="-192" y="1761.62" width="175" height="88" as="geometry" />
        </mxCell>
        <mxCell id="h7r6Ckqdof8iL1ljjbwg-43" value="&lt;b&gt;Frontend&amp;nbsp;&lt;/b&gt;&lt;div&gt;&lt;b&gt;(User Interface)&lt;/b&gt;&lt;/div&gt;" style="text;html=1;align=center;verticalAlign=middle;whiteSpace=wrap;rounded=0;" parent="1" vertex="1">
          <mxGeometry x="-185" y="1763.62" width="101" height="34" as="geometry" />
        </mxCell>
        <mxCell id="h7r6Ckqdof8iL1ljjbwg-44" value="&lt;b&gt;Gradio&lt;/b&gt;" style="rounded=1;whiteSpace=wrap;html=1;" parent="1" vertex="1">
          <mxGeometry x="-181" y="1805.62" width="152" height="34" as="geometry" />
        </mxCell>
        <mxCell id="h7r6Ckqdof8iL1ljjbwg-45" value="" style="endArrow=classic;html=1;rounded=0;" parent="1" edge="1">
          <mxGeometry width="50" height="50" relative="1" as="geometry">
            <mxPoint x="-5" y="1780.12" as="sourcePoint" />
            <mxPoint x="87" y="1780.62" as="targetPoint" />
          </mxGeometry>
        </mxCell>
        <mxCell id="h7r6Ckqdof8iL1ljjbwg-46" value="Audio Input" style="text;html=1;align=center;verticalAlign=middle;whiteSpace=wrap;rounded=0;" parent="1" vertex="1">
          <mxGeometry x="-11" y="1743.62" width="99" height="30" as="geometry" />
        </mxCell>
        <mxCell id="h7r6Ckqdof8iL1ljjbwg-47" value="Audio Output" style="text;html=1;align=center;verticalAlign=middle;whiteSpace=wrap;rounded=0;" parent="1" vertex="1">
          <mxGeometry x="-18.5" y="1826.12" width="114" height="30" as="geometry" />
        </mxCell>
        <mxCell id="h7r6Ckqdof8iL1ljjbwg-48" value="" style="endArrow=classic;html=1;rounded=0;" parent="1" edge="1">
          <mxGeometry width="50" height="50" relative="1" as="geometry">
            <mxPoint x="83.5" y="1825.12" as="sourcePoint" />
            <mxPoint x="-6.5" y="1825.12" as="targetPoint" />
          </mxGeometry>
        </mxCell>
        <mxCell id="h7r6Ckqdof8iL1ljjbwg-49" value="" style="rounded=1;whiteSpace=wrap;html=1;fillColor=#f5f5f5;fontColor=#333333;strokeColor=#666666;movable=1;resizable=1;rotatable=1;deletable=1;editable=1;locked=0;connectable=1;arcSize=10;" parent="1" vertex="1">
          <mxGeometry x="408" y="1617" width="1034" height="384" as="geometry" />
        </mxCell>
        <mxCell id="h7r6Ckqdof8iL1ljjbwg-50" value="&lt;b&gt;Backend&lt;/b&gt;&lt;div&gt;&lt;b&gt;(Langchain Chain)&lt;/b&gt;&lt;/div&gt;" style="text;html=1;align=center;verticalAlign=middle;whiteSpace=wrap;rounded=0;" parent="1" vertex="1">
          <mxGeometry x="417" y="1626" width="121" height="34" as="geometry" />
        </mxCell>
        <mxCell id="h7r6Ckqdof8iL1ljjbwg-51" style="edgeStyle=orthogonalEdgeStyle;rounded=0;orthogonalLoop=1;jettySize=auto;html=1;exitX=1;exitY=0.5;exitDx=0;exitDy=0;entryX=0;entryY=0.5;entryDx=0;entryDy=0;fillColor=#f8cecc;strokeColor=#b85450;" parent="1" source="h7r6Ckqdof8iL1ljjbwg-53" target="h7r6Ckqdof8iL1ljjbwg-56" edge="1">
          <mxGeometry relative="1" as="geometry" />
        </mxCell>
        <mxCell id="h7r6Ckqdof8iL1ljjbwg-52" style="edgeStyle=orthogonalEdgeStyle;rounded=0;orthogonalLoop=1;jettySize=auto;html=1;exitX=1;exitY=0.5;exitDx=0;exitDy=0;entryX=0;entryY=0.5;entryDx=0;entryDy=0;fillColor=#f8cecc;strokeColor=#b85450;" parent="1" source="h7r6Ckqdof8iL1ljjbwg-53" target="h7r6Ckqdof8iL1ljjbwg-60" edge="1">
          <mxGeometry relative="1" as="geometry" />
        </mxCell>
        <mxCell id="h7r6Ckqdof8iL1ljjbwg-128" style="edgeStyle=orthogonalEdgeStyle;rounded=0;orthogonalLoop=1;jettySize=auto;html=1;exitX=0.5;exitY=1;exitDx=0;exitDy=0;" parent="1" source="h7r6Ckqdof8iL1ljjbwg-53" target="h7r6Ckqdof8iL1ljjbwg-126" edge="1">
          <mxGeometry relative="1" as="geometry" />
        </mxCell>
        <mxCell id="h7r6Ckqdof8iL1ljjbwg-53" value="&lt;b&gt;1st Logic Routing&lt;/b&gt;&lt;div&gt;&lt;br&gt;&lt;/div&gt;&lt;div&gt;What is user input about?&lt;/div&gt;" style="rounded=1;whiteSpace=wrap;html=1;" parent="1" vertex="1">
          <mxGeometry x="426" y="1723" width="164" height="60" as="geometry" />
        </mxCell>
        <mxCell id="h7r6Ckqdof8iL1ljjbwg-54" style="edgeStyle=orthogonalEdgeStyle;rounded=0;orthogonalLoop=1;jettySize=auto;html=1;exitX=1;exitY=0.5;exitDx=0;exitDy=0;entryX=0;entryY=0.5;entryDx=0;entryDy=0;fillColor=#dae8fc;strokeColor=#6c8ebf;" parent="1" source="h7r6Ckqdof8iL1ljjbwg-56" target="h7r6Ckqdof8iL1ljjbwg-63" edge="1">
          <mxGeometry relative="1" as="geometry" />
        </mxCell>
        <mxCell id="h7r6Ckqdof8iL1ljjbwg-55" style="edgeStyle=orthogonalEdgeStyle;rounded=0;orthogonalLoop=1;jettySize=auto;html=1;exitX=1;exitY=0.5;exitDx=0;exitDy=0;entryX=0;entryY=0.5;entryDx=0;entryDy=0;fillColor=#dae8fc;strokeColor=#6c8ebf;" parent="1" source="h7r6Ckqdof8iL1ljjbwg-56" target="h7r6Ckqdof8iL1ljjbwg-65" edge="1">
          <mxGeometry relative="1" as="geometry" />
        </mxCell>
        <mxCell id="h7r6Ckqdof8iL1ljjbwg-56" value="&lt;div&gt;&lt;b&gt;2nd Logic Routing&lt;/b&gt;&lt;/div&gt;&lt;div&gt;&lt;b&gt;&lt;br&gt;&lt;/b&gt;&lt;/div&gt;&lt;div&gt;Is user expecting &lt;b&gt;SELECT &lt;/b&gt;or&amp;nbsp;&lt;b&gt;&lt;span style=&quot;background-color: initial;&quot;&gt;INSERT&lt;/span&gt;&lt;span style=&quot;background-color: initial;&quot;&gt;/&lt;/span&gt;&lt;/b&gt;&lt;span style=&quot;background-color: initial;&quot;&gt;&lt;b&gt;DELETE/UPDATE&lt;/b&gt; operation?&lt;/span&gt;&lt;/div&gt;" style="rounded=1;whiteSpace=wrap;html=1;" parent="1" vertex="1">
          <mxGeometry x="714.26" y="1674" width="229" height="95" as="geometry" />
        </mxCell>
        <mxCell id="h7r6Ckqdof8iL1ljjbwg-57" value="About &lt;b&gt;schedule&lt;/b&gt;" style="text;html=1;align=center;verticalAlign=middle;whiteSpace=wrap;rounded=0;" parent="1" vertex="1">
          <mxGeometry x="590" y="1644" width="154" height="30" as="geometry" />
        </mxCell>
        <mxCell id="h7r6Ckqdof8iL1ljjbwg-58" style="edgeStyle=orthogonalEdgeStyle;rounded=0;orthogonalLoop=1;jettySize=auto;html=1;exitX=1;exitY=0.5;exitDx=0;exitDy=0;entryX=0;entryY=0.5;entryDx=0;entryDy=0;fillColor=#dae8fc;strokeColor=#6c8ebf;" parent="1" source="h7r6Ckqdof8iL1ljjbwg-60" target="h7r6Ckqdof8iL1ljjbwg-67" edge="1">
          <mxGeometry relative="1" as="geometry" />
        </mxCell>
        <mxCell id="h7r6Ckqdof8iL1ljjbwg-59" style="edgeStyle=orthogonalEdgeStyle;rounded=0;orthogonalLoop=1;jettySize=auto;html=1;exitX=1;exitY=0.5;exitDx=0;exitDy=0;fillColor=#dae8fc;strokeColor=#6c8ebf;" parent="1" source="h7r6Ckqdof8iL1ljjbwg-60" target="h7r6Ckqdof8iL1ljjbwg-69" edge="1">
          <mxGeometry relative="1" as="geometry" />
        </mxCell>
        <mxCell id="h7r6Ckqdof8iL1ljjbwg-60" value="&lt;div&gt;&lt;b&gt;2nd Logic Routing&lt;/b&gt;&lt;/div&gt;&lt;div&gt;&lt;b&gt;&lt;br&gt;&lt;/b&gt;&lt;/div&gt;&lt;div&gt;Is user expecting &lt;b&gt;Retrieval &lt;/b&gt;or &lt;b&gt;Add/Delete/Update&lt;/b&gt; operation?&lt;/div&gt;" style="rounded=1;whiteSpace=wrap;html=1;" parent="1" vertex="1">
          <mxGeometry x="714.88" y="1854" width="227.75" height="95" as="geometry" />
        </mxCell>
        <mxCell id="h7r6Ckqdof8iL1ljjbwg-61" value="About &lt;b&gt;memo&lt;/b&gt;" style="text;html=1;align=center;verticalAlign=middle;whiteSpace=wrap;rounded=0;" parent="1" vertex="1">
          <mxGeometry x="587" y="1940" width="154" height="30" as="geometry" />
        </mxCell>
        <mxCell id="h7r6Ckqdof8iL1ljjbwg-62" style="edgeStyle=orthogonalEdgeStyle;rounded=0;orthogonalLoop=1;jettySize=auto;html=1;exitX=1;exitY=0.5;exitDx=0;exitDy=0;entryX=0;entryY=0.5;entryDx=0;entryDy=0;" parent="1" source="h7r6Ckqdof8iL1ljjbwg-63" target="h7r6Ckqdof8iL1ljjbwg-70" edge="1">
          <mxGeometry relative="1" as="geometry" />
        </mxCell>
        <mxCell id="h7r6Ckqdof8iL1ljjbwg-63" value="&lt;div&gt;&lt;b&gt;ReAct Agent&lt;/b&gt;&lt;/div&gt;&lt;div&gt;&lt;b&gt;&lt;br&gt;&lt;/b&gt;&lt;/div&gt;&lt;div&gt;SELECT&lt;/div&gt;" style="rounded=1;whiteSpace=wrap;html=1;" parent="1" vertex="1">
          <mxGeometry x="1034" y="1631" width="161" height="75" as="geometry" />
        </mxCell>
        <mxCell id="h7r6Ckqdof8iL1ljjbwg-64" style="edgeStyle=orthogonalEdgeStyle;rounded=0;orthogonalLoop=1;jettySize=auto;html=1;exitX=1;exitY=0.5;exitDx=0;exitDy=0;" parent="1" source="h7r6Ckqdof8iL1ljjbwg-65" target="h7r6Ckqdof8iL1ljjbwg-71" edge="1">
          <mxGeometry relative="1" as="geometry" />
        </mxCell>
        <mxCell id="h7r6Ckqdof8iL1ljjbwg-65" value="&lt;div&gt;&lt;b&gt;ToolCalling Agent&lt;/b&gt;&lt;/div&gt;&lt;div&gt;&lt;b&gt;&lt;br&gt;&lt;/b&gt;&lt;/div&gt;&lt;div&gt;INSERT/DELETE/UPDATE&lt;/div&gt;" style="rounded=1;whiteSpace=wrap;html=1;" parent="1" vertex="1">
          <mxGeometry x="1034" y="1726" width="161" height="75" as="geometry" />
        </mxCell>
        <mxCell id="h7r6Ckqdof8iL1ljjbwg-66" style="edgeStyle=orthogonalEdgeStyle;rounded=0;orthogonalLoop=1;jettySize=auto;html=1;exitX=1;exitY=0.5;exitDx=0;exitDy=0;entryX=0;entryY=0.5;entryDx=0;entryDy=0;" parent="1" source="h7r6Ckqdof8iL1ljjbwg-67" target="h7r6Ckqdof8iL1ljjbwg-72" edge="1">
          <mxGeometry relative="1" as="geometry" />
        </mxCell>
        <mxCell id="h7r6Ckqdof8iL1ljjbwg-67" value="&lt;div&gt;&lt;b&gt;ReAct Agent&lt;/b&gt;&lt;/div&gt;&lt;div&gt;&lt;b&gt;&lt;br&gt;&lt;/b&gt;&lt;/div&gt;&lt;div&gt;Retrieval&lt;/div&gt;" style="rounded=1;whiteSpace=wrap;html=1;" parent="1" vertex="1">
          <mxGeometry x="1034" y="1818" width="161" height="75" as="geometry" />
        </mxCell>
        <mxCell id="h7r6Ckqdof8iL1ljjbwg-68" style="edgeStyle=orthogonalEdgeStyle;rounded=0;orthogonalLoop=1;jettySize=auto;html=1;exitX=1;exitY=0.5;exitDx=0;exitDy=0;entryX=0;entryY=0.5;entryDx=0;entryDy=0;" parent="1" source="h7r6Ckqdof8iL1ljjbwg-69" target="h7r6Ckqdof8iL1ljjbwg-73" edge="1">
          <mxGeometry relative="1" as="geometry" />
        </mxCell>
        <mxCell id="h7r6Ckqdof8iL1ljjbwg-69" value="&lt;div&gt;&lt;b&gt;ToolCalling Agent&lt;/b&gt;&lt;/div&gt;&lt;div&gt;&lt;b&gt;&lt;br&gt;&lt;/b&gt;&lt;/div&gt;&lt;div&gt;Add/Delete/Update&lt;/div&gt;" style="rounded=1;whiteSpace=wrap;html=1;" parent="1" vertex="1">
          <mxGeometry x="1034" y="1910" width="161" height="75" as="geometry" />
        </mxCell>
        <mxCell id="h7r6Ckqdof8iL1ljjbwg-70" value="&lt;div&gt;&lt;b&gt;Builtin SQL Toolkit&lt;/b&gt;&lt;/div&gt;" style="rounded=1;whiteSpace=wrap;html=1;" parent="1" vertex="1">
          <mxGeometry x="1259" y="1631" width="161" height="75" as="geometry" />
        </mxCell>
        <mxCell id="h7r6Ckqdof8iL1ljjbwg-71" value="&lt;div&gt;&lt;b&gt;Customized SQL Toolkit&lt;/b&gt;&lt;/div&gt;" style="rounded=1;whiteSpace=wrap;html=1;" parent="1" vertex="1">
          <mxGeometry x="1259" y="1726" width="161" height="75" as="geometry" />
        </mxCell>
        <mxCell id="h7r6Ckqdof8iL1ljjbwg-72" value="&lt;div&gt;&lt;b&gt;Builtin Vector DB Toolkit&lt;/b&gt;&lt;/div&gt;" style="rounded=1;whiteSpace=wrap;html=1;" parent="1" vertex="1">
          <mxGeometry x="1259" y="1818" width="161" height="75" as="geometry" />
        </mxCell>
        <mxCell id="h7r6Ckqdof8iL1ljjbwg-73" value="&lt;div&gt;&lt;b&gt;Customized Vector DB Toolkit&lt;/b&gt;&lt;/div&gt;" style="rounded=1;whiteSpace=wrap;html=1;" parent="1" vertex="1">
          <mxGeometry x="1259" y="1910" width="161" height="75" as="geometry" />
        </mxCell>
        <mxCell id="h7r6Ckqdof8iL1ljjbwg-74" value="&lt;b&gt;Python Process&lt;/b&gt;" style="text;html=1;align=center;verticalAlign=middle;whiteSpace=wrap;rounded=0;" parent="1" vertex="1">
          <mxGeometry x="-180.5" y="1583" width="121" height="34" as="geometry" />
        </mxCell>
        <mxCell id="h7r6Ckqdof8iL1ljjbwg-112" value="" style="rounded=1;whiteSpace=wrap;html=1;fillColor=#f5f5f5;fontColor=#333333;strokeColor=#666666;" parent="1" vertex="1">
          <mxGeometry x="102" y="1692.62" width="180" height="232.75" as="geometry" />
        </mxCell>
        <mxCell id="h7r6Ckqdof8iL1ljjbwg-113" value="&lt;b&gt;Audio Text Conversion&lt;/b&gt;" style="text;html=1;align=center;verticalAlign=middle;whiteSpace=wrap;rounded=0;" parent="1" vertex="1">
          <mxGeometry x="102" y="1699.37" width="101" height="34" as="geometry" />
        </mxCell>
        <mxCell id="h7r6Ckqdof8iL1ljjbwg-114" value="&lt;b&gt;Whisper&lt;/b&gt;&lt;div&gt;&lt;b&gt;&lt;br&gt;&lt;/b&gt;&lt;/div&gt;&lt;div&gt;Audio2Text&lt;/div&gt;" style="rounded=1;whiteSpace=wrap;html=1;" parent="1" vertex="1">
          <mxGeometry x="115.5" y="1756" width="153" height="57" as="geometry" />
        </mxCell>
        <mxCell id="h7r6Ckqdof8iL1ljjbwg-115" value="&lt;b&gt;Pyttsx3&lt;/b&gt;&lt;div&gt;&lt;b&gt;&lt;br&gt;&lt;/b&gt;&lt;/div&gt;&lt;div&gt;Text2Audio&lt;/div&gt;" style="rounded=1;whiteSpace=wrap;html=1;" parent="1" vertex="1">
          <mxGeometry x="114" y="1835" width="156" height="56" as="geometry" />
        </mxCell>
        <mxCell id="h7r6Ckqdof8iL1ljjbwg-116" value="" style="endArrow=classic;html=1;rounded=0;" parent="1" edge="1">
          <mxGeometry width="50" height="50" relative="1" as="geometry">
            <mxPoint x="301.5" y="1782.75" as="sourcePoint" />
            <mxPoint x="393.5" y="1783.25" as="targetPoint" />
          </mxGeometry>
        </mxCell>
        <mxCell id="h7r6Ckqdof8iL1ljjbwg-117" value="Text Input" style="text;html=1;align=center;verticalAlign=middle;whiteSpace=wrap;rounded=0;" parent="1" vertex="1">
          <mxGeometry x="295.5" y="1746.25" width="99" height="30" as="geometry" />
        </mxCell>
        <mxCell id="h7r6Ckqdof8iL1ljjbwg-118" value="Text Output" style="text;html=1;align=center;verticalAlign=middle;whiteSpace=wrap;rounded=0;" parent="1" vertex="1">
          <mxGeometry x="288" y="1828.75" width="114" height="30" as="geometry" />
        </mxCell>
        <mxCell id="h7r6Ckqdof8iL1ljjbwg-119" value="" style="endArrow=classic;html=1;rounded=0;" parent="1" edge="1">
          <mxGeometry width="50" height="50" relative="1" as="geometry">
            <mxPoint x="390" y="1827.75" as="sourcePoint" />
            <mxPoint x="300" y="1827.75" as="targetPoint" />
          </mxGeometry>
        </mxCell>
        <mxCell id="h7r6Ckqdof8iL1ljjbwg-120" value="" style="endArrow=classic;html=1;rounded=0;" parent="1" edge="1">
          <mxGeometry width="50" height="50" relative="1" as="geometry">
            <mxPoint x="-331.5" y="1782.75" as="sourcePoint" />
            <mxPoint x="-239.5" y="1783.25" as="targetPoint" />
          </mxGeometry>
        </mxCell>
        <mxCell id="h7r6Ckqdof8iL1ljjbwg-121" value="User Input" style="text;html=1;align=center;verticalAlign=middle;whiteSpace=wrap;rounded=0;" parent="1" vertex="1">
          <mxGeometry x="-337.5" y="1746.25" width="99" height="30" as="geometry" />
        </mxCell>
        <mxCell id="h7r6Ckqdof8iL1ljjbwg-122" value="Agent Output" style="text;html=1;align=center;verticalAlign=middle;whiteSpace=wrap;rounded=0;" parent="1" vertex="1">
          <mxGeometry x="-345" y="1828.75" width="114" height="30" as="geometry" />
        </mxCell>
        <mxCell id="h7r6Ckqdof8iL1ljjbwg-123" value="" style="endArrow=classic;html=1;rounded=0;" parent="1" edge="1">
          <mxGeometry width="50" height="50" relative="1" as="geometry">
            <mxPoint x="-243" y="1827.75" as="sourcePoint" />
            <mxPoint x="-333" y="1827.75" as="targetPoint" />
          </mxGeometry>
        </mxCell>
        <mxCell id="h7r6Ckqdof8iL1ljjbwg-126" value="&lt;div&gt;&lt;b&gt;General Toolkit&lt;/b&gt;&lt;/div&gt;&lt;div&gt;&lt;b&gt;&lt;br&gt;&lt;/b&gt;&lt;/div&gt;&lt;div&gt;Enhance general model performance, e.g. time tool&lt;/div&gt;" style="rounded=1;whiteSpace=wrap;html=1;" parent="1" vertex="1">
          <mxGeometry x="427.5" y="1839.62" width="161" height="75" as="geometry" />
        </mxCell>
        <mxCell id="5NMz-BDpXmXrRbVnvR-r-2" value="" style="rounded=1;whiteSpace=wrap;html=1;fillColor=#f5f5f5;fontColor=#333333;strokeColor=#666666;" parent="1" vertex="1">
          <mxGeometry x="-185" y="2220" width="175" height="88" as="geometry" />
        </mxCell>
        <mxCell id="5NMz-BDpXmXrRbVnvR-r-3" value="&lt;b&gt;Frontend&amp;nbsp;&lt;/b&gt;&lt;div&gt;&lt;b&gt;(User Interface)&lt;/b&gt;&lt;/div&gt;" style="text;html=1;align=center;verticalAlign=middle;whiteSpace=wrap;rounded=0;" parent="1" vertex="1">
          <mxGeometry x="-148" y="2247" width="101" height="34" as="geometry" />
        </mxCell>
        <mxCell id="5NMz-BDpXmXrRbVnvR-r-5" value="" style="endArrow=classic;html=1;rounded=0;" parent="1" edge="1">
          <mxGeometry width="50" height="50" relative="1" as="geometry">
            <mxPoint x="2" y="2238.5" as="sourcePoint" />
            <mxPoint x="94" y="2239" as="targetPoint" />
          </mxGeometry>
        </mxCell>
        <mxCell id="5NMz-BDpXmXrRbVnvR-r-6" value="Audio Input" style="text;html=1;align=center;verticalAlign=middle;whiteSpace=wrap;rounded=0;" parent="1" vertex="1">
          <mxGeometry x="-4" y="2202" width="99" height="30" as="geometry" />
        </mxCell>
        <mxCell id="5NMz-BDpXmXrRbVnvR-r-7" value="Audio Output" style="text;html=1;align=center;verticalAlign=middle;whiteSpace=wrap;rounded=0;" parent="1" vertex="1">
          <mxGeometry x="-11.5" y="2284.5" width="114" height="30" as="geometry" />
        </mxCell>
        <mxCell id="5NMz-BDpXmXrRbVnvR-r-8" value="" style="endArrow=classic;html=1;rounded=0;" parent="1" edge="1">
          <mxGeometry width="50" height="50" relative="1" as="geometry">
            <mxPoint x="90.5" y="2283.5" as="sourcePoint" />
            <mxPoint x="0.5" y="2283.5" as="targetPoint" />
          </mxGeometry>
        </mxCell>
        <mxCell id="5NMz-BDpXmXrRbVnvR-r-11" value="" style="rounded=1;whiteSpace=wrap;html=1;fillColor=#f5f5f5;fontColor=#333333;strokeColor=#666666;" parent="1" vertex="1">
          <mxGeometry x="109" y="2151" width="180" height="232.75" as="geometry" />
        </mxCell>
        <mxCell id="5NMz-BDpXmXrRbVnvR-r-12" value="&lt;b&gt;Audio Text Conversion&lt;/b&gt;" style="text;html=1;align=center;verticalAlign=middle;whiteSpace=wrap;rounded=0;" parent="1" vertex="1">
          <mxGeometry x="109" y="2157.75" width="101" height="34" as="geometry" />
        </mxCell>
        <mxCell id="5NMz-BDpXmXrRbVnvR-r-13" value="&lt;b&gt;Whisper&lt;/b&gt;&lt;div&gt;&lt;b&gt;&lt;br&gt;&lt;/b&gt;&lt;/div&gt;&lt;div&gt;Audio2Text&lt;/div&gt;" style="rounded=1;whiteSpace=wrap;html=1;" parent="1" vertex="1">
          <mxGeometry x="123" y="2291.75" width="153" height="57" as="geometry" />
        </mxCell>
        <mxCell id="5NMz-BDpXmXrRbVnvR-r-14" value="&lt;b&gt;Pyttsx3&lt;/b&gt;&lt;div&gt;&lt;b&gt;&lt;br&gt;&lt;/b&gt;&lt;/div&gt;&lt;div&gt;Text2Audio&lt;/div&gt;" style="rounded=1;whiteSpace=wrap;html=1;" parent="1" vertex="1">
          <mxGeometry x="120" y="2211" width="156" height="56" as="geometry" />
        </mxCell>
        <mxCell id="5NMz-BDpXmXrRbVnvR-r-15" value="" style="endArrow=classic;html=1;rounded=0;" parent="1" edge="1">
          <mxGeometry width="50" height="50" relative="1" as="geometry">
            <mxPoint x="308.5" y="2241.13" as="sourcePoint" />
            <mxPoint x="400.5" y="2241.63" as="targetPoint" />
          </mxGeometry>
        </mxCell>
        <mxCell id="5NMz-BDpXmXrRbVnvR-r-16" value="Text Input" style="text;html=1;align=center;verticalAlign=middle;whiteSpace=wrap;rounded=0;" parent="1" vertex="1">
          <mxGeometry x="302.5" y="2204.63" width="99" height="30" as="geometry" />
        </mxCell>
        <mxCell id="5NMz-BDpXmXrRbVnvR-r-17" value="Text Output" style="text;html=1;align=center;verticalAlign=middle;whiteSpace=wrap;rounded=0;" parent="1" vertex="1">
          <mxGeometry x="295" y="2287.13" width="114" height="30" as="geometry" />
        </mxCell>
        <mxCell id="5NMz-BDpXmXrRbVnvR-r-18" value="" style="endArrow=classic;html=1;rounded=0;" parent="1" edge="1">
          <mxGeometry width="50" height="50" relative="1" as="geometry">
            <mxPoint x="397" y="2286.13" as="sourcePoint" />
            <mxPoint x="307" y="2286.13" as="targetPoint" />
          </mxGeometry>
        </mxCell>
        <mxCell id="5NMz-BDpXmXrRbVnvR-r-20" value="" style="rounded=1;whiteSpace=wrap;html=1;fillColor=#f5f5f5;fontColor=#333333;strokeColor=#666666;" parent="1" vertex="1">
          <mxGeometry x="420.5" y="2220" width="175" height="88" as="geometry" />
        </mxCell>
        <mxCell id="5NMz-BDpXmXrRbVnvR-r-21" value="&lt;b&gt;Backend&lt;/b&gt;&lt;div&gt;&lt;b&gt;(Funtionality)&lt;/b&gt;&lt;/div&gt;" style="text;html=1;align=center;verticalAlign=middle;whiteSpace=wrap;rounded=0;" parent="1" vertex="1">
          <mxGeometry x="457.5" y="2247" width="101" height="34" as="geometry" />
        </mxCell>
        <mxCell id="UdwnqnYxUmDGHIaqmyCK-6" style="edgeStyle=orthogonalEdgeStyle;rounded=0;orthogonalLoop=1;jettySize=auto;html=1;exitX=1;exitY=0.5;exitDx=0;exitDy=0;entryX=-0.002;entryY=0.488;entryDx=0;entryDy=0;entryPerimeter=0;" parent="1" source="UdwnqnYxUmDGHIaqmyCK-27" target="UdwnqnYxUmDGHIaqmyCK-14" edge="1">
          <mxGeometry relative="1" as="geometry">
            <mxPoint x="-125" y="2754.5" as="sourcePoint" />
            <mxPoint x="-10" y="2694" as="targetPoint" />
          </mxGeometry>
        </mxCell>
        <mxCell id="UdwnqnYxUmDGHIaqmyCK-7" value="Mock Input" style="text;html=1;align=center;verticalAlign=middle;whiteSpace=wrap;rounded=0;" parent="1" vertex="1">
          <mxGeometry x="-113" y="2722" width="99" height="30" as="geometry" />
        </mxCell>
        <mxCell id="UdwnqnYxUmDGHIaqmyCK-35" style="edgeStyle=orthogonalEdgeStyle;rounded=0;orthogonalLoop=1;jettySize=auto;html=1;exitX=0;exitY=0.5;exitDx=0;exitDy=0;entryX=1;entryY=0.5;entryDx=0;entryDy=0;" parent="1" source="UdwnqnYxUmDGHIaqmyCK-11" target="UdwnqnYxUmDGHIaqmyCK-20" edge="1">
          <mxGeometry relative="1" as="geometry" />
        </mxCell>
        <mxCell id="UdwnqnYxUmDGHIaqmyCK-11" value="" style="rounded=1;whiteSpace=wrap;html=1;fillColor=#f5f5f5;fontColor=#333333;strokeColor=#666666;" parent="1" vertex="1">
          <mxGeometry x="-3.5" y="2969" width="156" height="119" as="geometry" />
        </mxCell>
        <mxCell id="UdwnqnYxUmDGHIaqmyCK-12" value="&lt;b&gt;Answer Evaluation&lt;/b&gt;" style="text;html=1;align=center;verticalAlign=middle;whiteSpace=wrap;rounded=0;" parent="1" vertex="1">
          <mxGeometry x="16.5" y="2976" width="117" height="34" as="geometry" />
        </mxCell>
        <mxCell id="UdwnqnYxUmDGHIaqmyCK-13" value="&lt;b&gt;OpenAI GPT4-turbo&lt;/b&gt;" style="rounded=1;whiteSpace=wrap;html=1;" parent="1" vertex="1">
          <mxGeometry x="12.5" y="3019" width="125" height="50" as="geometry" />
        </mxCell>
        <mxCell id="UdwnqnYxUmDGHIaqmyCK-34" style="edgeStyle=orthogonalEdgeStyle;rounded=0;orthogonalLoop=1;jettySize=auto;html=1;exitX=0.5;exitY=1;exitDx=0;exitDy=0;entryX=0.5;entryY=0;entryDx=0;entryDy=0;" parent="1" source="UdwnqnYxUmDGHIaqmyCK-14" target="UdwnqnYxUmDGHIaqmyCK-11" edge="1">
          <mxGeometry relative="1" as="geometry" />
        </mxCell>
        <mxCell id="UdwnqnYxUmDGHIaqmyCK-14" value="" style="rounded=1;whiteSpace=wrap;html=1;fillColor=#f5f5f5;fontColor=#333333;strokeColor=#666666;" parent="1" vertex="1">
          <mxGeometry x="-4" y="2630" width="157" height="254" as="geometry" />
        </mxCell>
        <mxCell id="UdwnqnYxUmDGHIaqmyCK-15" value="&lt;b&gt;Agent&lt;/b&gt;" style="text;html=1;align=center;verticalAlign=middle;whiteSpace=wrap;rounded=0;" parent="1" vertex="1">
          <mxGeometry x="22" y="2637" width="105" height="34" as="geometry" />
        </mxCell>
        <mxCell id="UdwnqnYxUmDGHIaqmyCK-16" value="&lt;b&gt;OpenAI GPT4o&lt;/b&gt;" style="rounded=1;whiteSpace=wrap;html=1;" parent="1" vertex="1">
          <mxGeometry x="12" y="2680" width="125" height="50" as="geometry" />
        </mxCell>
        <mxCell id="UdwnqnYxUmDGHIaqmyCK-18" value="Agent Output" style="text;html=1;align=center;verticalAlign=middle;whiteSpace=wrap;rounded=0;" parent="1" vertex="1">
          <mxGeometry x="75" y="2914" width="99" height="30" as="geometry" />
        </mxCell>
        <mxCell id="UdwnqnYxUmDGHIaqmyCK-20" value="" style="rounded=1;whiteSpace=wrap;html=1;fillColor=#f5f5f5;fontColor=#333333;strokeColor=#666666;" parent="1" vertex="1">
          <mxGeometry x="-275" y="2967" width="156" height="123" as="geometry" />
        </mxCell>
        <mxCell id="UdwnqnYxUmDGHIaqmyCK-21" value="&lt;b&gt;Evaluation Analysis&lt;/b&gt;" style="text;html=1;align=center;verticalAlign=middle;whiteSpace=wrap;rounded=0;" parent="1" vertex="1">
          <mxGeometry x="-255" y="2974" width="117" height="34" as="geometry" />
        </mxCell>
        <mxCell id="UdwnqnYxUmDGHIaqmyCK-22" value="&lt;b&gt;LangSmith&lt;/b&gt;" style="rounded=1;whiteSpace=wrap;html=1;" parent="1" vertex="1">
          <mxGeometry x="-259" y="3017" width="125" height="50" as="geometry" />
        </mxCell>
        <mxCell id="UdwnqnYxUmDGHIaqmyCK-23" value="&lt;b&gt;OpenAI Whisper&lt;/b&gt;" style="rounded=1;whiteSpace=wrap;html=1;" parent="1" vertex="1">
          <mxGeometry x="12" y="2749" width="125" height="50" as="geometry" />
        </mxCell>
        <mxCell id="UdwnqnYxUmDGHIaqmyCK-24" value="&lt;b&gt;OpenAI Ada2&lt;/b&gt;" style="rounded=1;whiteSpace=wrap;html=1;" parent="1" vertex="1">
          <mxGeometry x="12" y="2816" width="125" height="50" as="geometry" />
        </mxCell>
        <mxCell id="UdwnqnYxUmDGHIaqmyCK-27" value="" style="rounded=1;whiteSpace=wrap;html=1;fillColor=#f5f5f5;fontColor=#333333;strokeColor=#666666;" parent="1" vertex="1">
          <mxGeometry x="-275" y="2626" width="157" height="254" as="geometry" />
        </mxCell>
        <mxCell id="UdwnqnYxUmDGHIaqmyCK-28" value="&lt;b&gt;QA Generation&lt;/b&gt;" style="text;html=1;align=center;verticalAlign=middle;whiteSpace=wrap;rounded=0;" parent="1" vertex="1">
          <mxGeometry x="-249" y="2633" width="105" height="34" as="geometry" />
        </mxCell>
        <mxCell id="UdwnqnYxUmDGHIaqmyCK-29" value="&lt;b&gt;Hunyuan&lt;/b&gt;" style="rounded=1;whiteSpace=wrap;html=1;" parent="1" vertex="1">
          <mxGeometry x="-259" y="2676" width="125" height="50" as="geometry" />
        </mxCell>
        <mxCell id="UdwnqnYxUmDGHIaqmyCK-30" value="&lt;b&gt;Llma2&lt;/b&gt;" style="rounded=1;whiteSpace=wrap;html=1;" parent="1" vertex="1">
          <mxGeometry x="-259" y="2745" width="125" height="50" as="geometry" />
        </mxCell>
        <mxCell id="UdwnqnYxUmDGHIaqmyCK-31" value="&lt;b&gt;Claude3&lt;/b&gt;" style="rounded=1;whiteSpace=wrap;html=1;" parent="1" vertex="1">
          <mxGeometry x="-259" y="2812" width="125" height="50" as="geometry" />
        </mxCell>
        <mxCell id="UdwnqnYxUmDGHIaqmyCK-32" value="Results Collection" style="text;html=1;align=center;verticalAlign=middle;whiteSpace=wrap;rounded=0;" parent="1" vertex="1">
          <mxGeometry x="-109" y="2993" width="99" height="30" as="geometry" />
        </mxCell>
      </root>
    </mxGraphModel>
  </diagram>
</mxfile>
